<?xml version="1.0" encoding="utf-8"?>
<!-- Generator: Adobe Illustrator 25.1.0, SVG Export Plug-In . SVG Version: 6.00 Build 0)  -->
<svg version="1.1" id="Layer_1" xmlns="http://www.w3.org/2000/svg" xmlns:xlink="http://www.w3.org/1999/xlink" x="0px" y="0px"
	 viewBox="125 125 250 250" style="enable-background:new 0 0 500 500;" xml:space="preserve">
<style type="text/css">
	.st0{fill:#010101;}
	.st1{fill:#FDB83F;}
	.st2{fill:#F90000;}
</style>
<path class="st0" d="M122,378c0-85.3,0-170.7,0-256c53.7,0,107.3,0,161,0c1.1,0.9,2.4,0.4,3.5,0.5c19.7,0.1,38.1,5,55.2,15.1
	c31.8,18.8,32.3,63.4,4,85.6c-7,5.5-14.8,9.5-23,13.3c1.2,1.5,2.8,1.3,4.1,1.6c15.1,3.4,29.3,9,41.3,19.1c4.2,3.6,8,7.5,9.9,12.8
	c0,20.7,0,41.3,0,62c-4.7,11.5-13.7,19.2-23.7,25.5c-19.2,12.2-40,19.4-63,20c-0.5,0-1,0.2-1.3,0.5c-44.7,0-89.3,0-134,0"/>
<path class="st1" d="M200,331.9c0-21.6,0-42.6,0-64.2c6.5,0,12.8-0.1,19,0c17,0.3,33.9-0.9,50.8,1.1c5.5,0.6,10.7,2,15.9,3.9
	c11.1,4.1,16.6,12.3,17.1,23.9c0.5,12-3.2,22-14.6,27.8c-9.2,4.7-19,7.3-29.2,7.4C239.6,332.1,220,331.9,200,331.9z"/>
<path class="st1" d="M200,223c0-18.3,0-36.2,0-54.7c13.9,0,27.7-0.1,41.5,0c7.8,0.1,15.6,0.7,23.2,2.8c7.7,2.2,13.8,6.3,17,14.1
	c5.3,13.2-0.6,27.5-13.7,33c-8.1,3.4-16.7,4-25.4,4.4C228.4,223.3,214.3,222.8,200,223z"/>
<path class="st2" d="M134,378c11.2-12.8,22.4-25.5,34.1-38.9c-13.1,0-25.6,0-38,0c-1.4-3.2-0.3-6-1-9.3c20.1,0,39.8,0,59.6,0
	c0.9,2.9,0.2,5.9,0.4,9.2c-11,12.9-22.1,25.9-33.2,38.9C148.7,378,141.3,378,134,378z"/>
<path class="st2" d="M132.9,194.6c13.6-3.1,26.6-4.5,39.7-1.6c6.3,1.4,12.5,3.6,14.3,10.8c1.8,7.4-2.8,12.2-8.1,16.4
	c-6.2,4.8-13.3,8.1-20,12.5c10.5,0,21,0,31.5,0c1.2,3.2,0.5,6,0.6,9.1c-19.9,0-39.6,0-59.6,0c0-2.5,0-4.9,0-7.6
	c6.8-3.6,13.7-7.2,20.6-11c4-2.1,7.8-4.6,11.1-7.6c2.5-2.3,5-4.9,3.9-8.6c-1.1-3.9-4.7-4.9-8.3-5.3c-7.1-0.8-13.9,0.4-20.6,2.8
	c-1.4,0.5-2.8,0.9-4.5,1.5C132.4,202.2,133.1,198.6,132.9,194.6z"/>
<path class="st2" d="M129.5,270.7c0-3.6,0-6.3,0-9.4c19.8,0,39.3,0,59.2,0c0,3.1,0,6.1,0,10c-11,12.8-22.6,26.1-34,39.3
	c-7.2,0-14.1,0-22,0c11.8-13.3,23.1-26.1,35.3-39.9C154.6,270.7,142.1,270.7,129.5,270.7z"/>
<path class="st2" d="M150.8,138.5c-5.5,0-10.4,0-15.6,0c0-2.9,0-5.3,0-8c6.7-1.3,14.5,0.9,18.6-6.6c5.3,0,10.5,0,16.2,0
	c0,13.4,0,26.6,0,40.3c5.5,0,10.4,0,15.6,0c0,3.1,0,5.7,0,8.6c-16.6,0-33.3,0-50.3,0c0-2.6,0-5.1,0-8c4.9-1.2,10.1,0.1,15.4-0.8
	C150.8,155.7,150.8,147.5,150.8,138.5z"/>
</svg>
